<svg width="26" height="26" viewBox="0 0 26 26" fill="none" xmlns="http://www.w3.org/2000/svg">
<path opacity="0.4" fill-rule="evenodd" clip-rule="evenodd" d="M6.38345 22.2356C6.38345 21.3284 7.11785 20.594 8.02505 20.594C8.92145 20.594 9.65585 21.3284 9.65585 22.2356C9.65585 23.132 8.92145 23.8664 8.02505 23.8664C7.11785 23.8664 6.38345 23.132 6.38345 22.2356ZM18.5335 22.2356C18.5335 21.3284 19.2679 20.594 20.1751 20.594C21.0715 20.594 21.8059 21.3284 21.8059 22.2356C21.8059 23.132 21.0715 23.8664 20.1751 23.8664C19.2679 23.8664 18.5335 23.132 18.5335 22.2356Z" fill="url(#paint0_linear_302_235)"/>
<path fill-rule="evenodd" clip-rule="evenodd" d="M21.8061 6.85692C22.4649 6.85692 22.8969 7.08372 23.3289 7.58052C23.7609 8.07732 23.8365 8.79012 23.7393 9.43704L22.7133 16.5218C22.5189 17.8837 21.3525 18.887 19.9809 18.887H8.19807C6.76167 18.887 5.57367 17.7854 5.45487 16.3609L4.46127 4.58784L2.83047 4.30704C2.39847 4.23144 2.09607 3.81024 2.17167 3.37824C2.24727 2.93544 2.66847 2.64384 3.11127 2.70864L5.68707 3.09744C6.05427 3.16332 6.32427 3.46464 6.35667 3.83184L6.56187 6.25104C6.59427 6.59772 6.87507 6.85692 7.22067 6.85692H21.8061ZM15.2613 12.4718H18.2529C18.7065 12.4718 19.0629 12.1046 19.0629 11.6618C19.0629 11.2082 18.7065 10.8518 18.2529 10.8518H15.2613C14.8077 10.8518 14.4513 11.2082 14.4513 11.6618C14.4513 12.1046 14.8077 12.4718 15.2613 12.4718Z" fill="url(#paint1_linear_302_235)"/>
<defs>
<linearGradient id="paint0_linear_302_235" x1="7.54761" y1="20.594" x2="21.572" y2="22.6264" gradientUnits="userSpaceOnUse">
<stop stop-color="#5FCD70"/>
<stop offset="1" stop-color="#0E826B"/>
</linearGradient>
<linearGradient id="paint1_linear_302_235" x1="3.79181" y1="2.69966" x2="23.8281" y2="3.52242" gradientUnits="userSpaceOnUse">
<stop stop-color="#5FCD70"/>
<stop offset="1" stop-color="#0E826B"/>
</linearGradient>
</defs>
</svg>
