<svg width="19" height="19" viewBox="0 0 19 19" fill="none" xmlns="http://www.w3.org/2000/svg">
<g clip-path="url(#clip0_7_512)">
<path d="M16.5412 1.11768H14.8647V2.79415C14.8647 3.12944 14.5853 3.35297 14.3059 3.35297C14.0265 3.35297 13.7471 3.12944 13.7471 2.79415V1.11768H4.80588V2.79415C4.80588 3.12944 4.52647 3.35297 4.24706 3.35297C3.96765 3.35297 3.68823 3.12944 3.68823 2.79415V1.11768H2.01176C1.17353 1.11768 0.558823 1.84415 0.558823 2.79415V4.80591H18.4412V2.79415C18.4412 1.84415 17.4353 1.11768 16.5412 1.11768ZM0.558823 5.97944V16.2059C0.558823 17.2118 1.17353 17.8824 2.06765 17.8824H16.5971C17.4912 17.8824 18.4971 17.1559 18.4971 16.2059V5.97944H0.558823ZM5.53235 15.3677H4.19118C3.96765 15.3677 3.74412 15.2 3.74412 14.9206V13.5236C3.74412 13.3 3.91176 13.0765 4.19118 13.0765H5.58823C5.81176 13.0765 6.03529 13.2441 6.03529 13.5236V14.9206C5.97941 15.2 5.81176 15.3677 5.53235 15.3677ZM5.53235 10.3383H4.19118C3.96765 10.3383 3.74412 10.1706 3.74412 9.89121V8.49415C3.74412 8.27062 3.91176 8.04709 4.19118 8.04709H5.58823C5.81176 8.04709 6.03529 8.21473 6.03529 8.49415V9.89121C5.97941 10.1706 5.81176 10.3383 5.53235 10.3383ZM10.0029 15.3677H8.60588C8.38235 15.3677 8.15882 15.2 8.15882 14.9206V13.5236C8.15882 13.3 8.32647 13.0765 8.60588 13.0765H10.0029C10.2265 13.0765 10.45 13.2441 10.45 13.5236V14.9206C10.45 15.2 10.2824 15.3677 10.0029 15.3677ZM10.0029 10.3383H8.60588C8.38235 10.3383 8.15882 10.1706 8.15882 9.89121V8.49415C8.15882 8.27062 8.32647 8.04709 8.60588 8.04709H10.0029C10.2265 8.04709 10.45 8.21473 10.45 8.49415V9.89121C10.45 10.1706 10.2824 10.3383 10.0029 10.3383ZM14.4735 15.3677H13.0765C12.8529 15.3677 12.6294 15.2 12.6294 14.9206V13.5236C12.6294 13.3 12.7971 13.0765 13.0765 13.0765H14.4735C14.6971 13.0765 14.9206 13.2441 14.9206 13.5236V14.9206C14.9206 15.2 14.7529 15.3677 14.4735 15.3677ZM14.4735 10.3383H13.0765C12.8529 10.3383 12.6294 10.1706 12.6294 9.89121V8.49415C12.6294 8.27062 12.7971 8.04709 13.0765 8.04709H14.4735C14.6971 8.04709 14.9206 8.21473 14.9206 8.49415V9.89121C14.9206 10.1706 14.7529 10.3383 14.4735 10.3383Z" fill="#B3B3B3"/>
</g>
<defs>
<clipPath id="clip0_7_512">
<rect width="19" height="19" fill="white"/>
</clipPath>
</defs>
</svg>
