<svg width="35" height="35" viewBox="0 0 35 35" fill="none" xmlns="http://www.w3.org/2000/svg">
<g clip-path="url(#clip0_7_670)">
<path d="M22.3276 33.7931H5.43107L3.0173 15.0862H24.7414L22.3276 33.7931Z" fill="#00A66A"/>
<path d="M26.5518 12.6724H1.20695V15.0862H26.5518V12.6724Z" fill="#00A66A"/>
<path d="M3.01731 15.0862L3.32869 17.5H24.43L24.7414 15.0862H3.01731Z" fill="#9AD143"/>
<path d="M12.6724 12.6724H4.22419V7.24136L6.63795 4.22412H10.2587L12.6724 7.24136V12.6724Z" fill="#9AD143"/>
<path d="M10.2585 0H6.63775V4.22412H10.2585V0Z" fill="#00A66A"/>
<path d="M12.6727 7.24129H4.22419V12.6724H12.6727V7.24129Z" fill="#9AD143"/>
<path d="M22.214 2.03761L21.1342 2.57657L23.5973 7.51092L24.677 6.97196L22.214 2.03761Z" fill="#E66712"/>
<path d="M25.9486 0H23.5348V2.41376H25.9486V0Z" fill="#9AD143"/>
<path d="M20.5173 4.8276H15.0863C15.0863 2.16152 17.2478 0 19.9138 0H23.5345V2.41377L20.5173 4.8276Z" fill="#9AD143"/>
<path d="M20.5171 4.82753H16.8964V7.24129H20.5171V4.82753Z" fill="#D4D4D4"/>
<path d="M16.8966 7.24136H20.5173L23.5345 10.2586V12.6724H15.0863V9.05172L16.8966 7.24136Z" fill="#9AD143"/>
<path d="M30.7759 25.3448H29.8309C29.2619 25.3448 28.7006 25.4776 28.1913 25.7316C27.1594 26.2481 25.944 26.2481 24.9122 25.7316C24.4029 25.4776 23.8417 25.3448 23.2726 25.3448H22.3276C20.6614 25.3448 19.3103 26.6959 19.3103 28.362V31.9828C19.3103 33.6489 20.6614 35 22.3276 35H23.2726C23.8416 35 24.4028 34.8672 24.9122 34.6132C25.944 34.0967 27.1594 34.0967 28.1913 34.6132C28.7006 34.8672 29.2618 35 29.8308 35H30.7758C32.4419 35 33.7931 33.6489 33.7931 31.9828V28.362C33.7931 26.6959 32.442 25.3448 30.7759 25.3448Z" fill="#F5A338"/>
<path d="M30.7759 31.3792H29.8309C29.2619 31.3792 28.7006 31.2465 28.1913 30.9924C27.1594 30.4759 25.944 30.4759 24.9122 30.9924C24.4029 31.2465 23.8417 31.3792 23.2726 31.3792H22.3276C20.6614 31.3792 19.3103 30.0281 19.3103 28.362C19.3103 26.6959 20.6614 25.3447 22.3276 25.3447H23.2726C23.8416 25.3447 24.4028 25.4775 24.9122 25.7315C25.944 26.248 27.1594 26.248 28.1913 25.7315C28.7006 25.4775 29.2618 25.3447 29.8308 25.3447H30.7758C32.4419 25.3447 33.7931 26.6959 33.7931 28.362C33.7931 30.0282 32.442 31.3792 30.7759 31.3792Z" fill="#F9B44D"/>
<path d="M31.3794 27.155H30.1725V28.3619H31.3794V27.155Z" fill="#F5A338"/>
<path d="M25.3446 27.155H24.1377V28.3619H25.3446V27.155Z" fill="#F5A338"/>
<path d="M22.9308 27.7586H21.724V28.9655H22.9308V27.7586Z" fill="#F5A338"/>
<path d="M28.9656 27.7586H27.7587V28.9655H28.9656V27.7586Z" fill="#F5A338"/>
<path d="M16.8966 17.5V12.6724H7.24143V26.5516C7.24143 27.5515 8.05183 28.362 9.05179 28.362H15.0863C16.0862 28.362 16.8966 27.5516 16.8966 26.5516V20.5171L19.3466 21.7421C19.9929 22.0656 20.7786 21.8037 21.102 21.158C21.102 21.1574 21.1026 21.1574 21.1026 21.1568L21.1177 21.1266C21.4556 20.4634 21.1914 19.6518 20.5288 19.3145C20.5264 19.3133 20.5234 19.3115 20.5203 19.3103L16.8966 17.5Z" fill="#97D3E6"/>
<path d="M20.5203 19.3103L16.8966 17.5V12.6724H16.4392C14.2487 19.8745 10.4047 24.2761 7.26679 26.8177C7.39654 27.7042 8.15628 28.3614 9.05179 28.362H15.0863C16.0862 28.362 16.8966 27.5516 16.8966 26.5516V20.5171L19.3466 21.7421C19.9929 22.0656 20.7786 21.8037 21.102 21.158C21.102 21.1574 21.1026 21.1574 21.1026 21.1568L21.1177 21.1266C21.4556 20.4634 21.1914 19.6518 20.5288 19.3145C20.5258 19.3133 20.5233 19.3115 20.5203 19.3103Z" fill="#8CC6D9"/>
<path d="M10.2584 22.3275H9.05151V28.3622H10.2584V22.3275Z" fill="#7DBDD1"/>
<path d="M12.6722 22.3275H11.4653V28.3622H12.6722V22.3275Z" fill="#7DBDD1"/>
<path d="M15.0859 22.3275H13.879V28.3622H15.0859V22.3275Z" fill="#7DBDD1"/>
</g>
<defs>
<clipPath id="clip0_7_670">
<rect width="35" height="35" fill="white"/>
</clipPath>
</defs>
</svg>
