<svg width="18" height="18" viewBox="0 0 18 18" fill="none" xmlns="http://www.w3.org/2000/svg">
<path d="M8.92977 0C3.99851 0 0 3.99773 0 8.92938C0 13.861 3.99812 17.8588 8.92977 17.8588C13.8618 17.8588 17.8595 13.861 17.8595 8.92938C17.8595 3.99773 13.8618 0 8.92977 0ZM8.92977 2.66999C10.5615 2.66999 11.8837 3.99263 11.8837 5.62357C11.8837 7.2549 10.5615 8.57715 8.92977 8.57715C7.29883 8.57715 5.97659 7.2549 5.97659 5.62357C5.97659 3.99263 7.29883 2.66999 8.92977 2.66999ZM8.92781 15.5241C7.3004 15.5241 5.80988 14.9315 4.66022 13.9505C4.38016 13.7116 4.21856 13.3613 4.21856 12.9938C4.21856 11.3397 5.55728 10.0159 7.21176 10.0159H10.6486C12.3034 10.0159 13.6371 11.3397 13.6371 12.9938C13.6371 13.3617 13.4762 13.7112 13.1958 13.9501C12.0465 14.9315 10.5556 15.5241 8.92781 15.5241Z" fill="#B3B3B3"/>
</svg>
