<svg width="16" height="17" viewBox="0 0 16 17" fill="none" xmlns="http://www.w3.org/2000/svg">
<path d="M5.53769 15.6553V13.099C5.53767 12.4512 6.06442 11.9249 6.71687 11.9209H9.11256C9.76792 11.9209 10.2992 12.4483 10.2992 13.099V15.6479C10.2992 16.2097 10.7558 16.6663 11.3217 16.6704H12.9561C13.7194 16.6724 14.4522 16.3727 14.9927 15.8375C15.5331 15.3023 15.8369 14.5756 15.8369 13.8177V6.55634C15.8369 5.94416 15.5636 5.36346 15.0906 4.9707L9.53796 0.562017C8.56735 -0.209112 7.18109 -0.184201 6.23923 0.621293L0.806025 4.9707C0.310687 5.35189 0.0146302 5.9343 0 6.55634V13.8103C0 15.3899 1.28977 16.6704 2.88079 16.6704H4.47791C4.75038 16.6724 5.01236 16.5663 5.20573 16.3757C5.3991 16.1851 5.50784 15.9258 5.50783 15.6553H5.53769Z" fill="url(#paint0_linear_2_1232)"/>
<defs>
<linearGradient id="paint0_linear_2_1232" x1="1.19545" y1="1.06477e-05" x2="15.8866" y2="0.429172" gradientUnits="userSpaceOnUse">
<stop stop-color="#5FCD70"/>
<stop offset="1" stop-color="#0E826B"/>
</linearGradient>
</defs>
</svg>
