<svg width="32" height="32" viewBox="0 0 32 32" fill="none" xmlns="http://www.w3.org/2000/svg">
<rect width="32" height="32" rx="8" fill="url(#paint0_linear_7_208)"/>
<path fill-rule="evenodd" clip-rule="evenodd" d="M10.5 15.4389C10.5 12.7112 12.7112 10.5 15.4389 10.5C18.1666 10.5 20.3778 12.7112 20.3778 15.4389C20.3778 16.7681 19.8527 17.9746 18.9987 18.8624C18.9735 18.8819 18.9493 18.9031 18.9262 18.9262C18.9031 18.9493 18.8819 18.9735 18.8624 18.9987C17.9746 19.8527 16.7681 20.3778 15.4389 20.3778C12.7112 20.3778 10.5 18.1666 10.5 15.4389ZM19.4307 20.4914C18.3335 21.3595 16.9467 21.8778 15.4389 21.8778C11.8828 21.8778 9 18.995 9 15.4389C9 11.8828 11.8828 9 15.4389 9C18.995 9 21.8778 11.8828 21.8778 15.4389C21.8778 16.9467 21.3595 18.3335 20.4914 19.4307L23.0802 22.0195C23.3731 22.3124 23.3731 22.7873 23.0802 23.0802C22.7873 23.3731 22.3124 23.3731 22.0195 23.0802L19.4307 20.4914Z" fill="white"/>
<defs>
<linearGradient id="paint0_linear_7_208" x1="2.41552" y1="2.04389e-05" x2="32.0978" y2="0.912739" gradientUnits="userSpaceOnUse">
<stop stop-color="#5FCD70"/>
<stop offset="1" stop-color="#0E826B"/>
</linearGradient>
</defs>
</svg>
